<svg width="28" height="28" viewBox="0 0 28 28" fill="none" xmlns="http://www.w3.org/2000/svg">
<path d="M18 4C20.84 4 23.48 4.85 25.69 6.31C23.19 2.51 18.89 0 14 0C6.27 0 0 6.27 0 14C0 18.89 2.51 23.19 6.31 25.69C4.85 23.48 4 20.84 4 18C4 10.27 10.27 4 18 4Z" fill="#F4F5F6"/>
<path d="M28 14C28 11.16 27.15 8.52 25.69 6.31C23.48 4.85 20.84 4 18 4C10.27 4 4 10.27 4 18C4 20.84 4.85 23.48 6.31 25.69C8.52 27.15 11.16 28 14 28C21.73 28 28 21.73 28 14Z" fill="#D8D8D8"/>
<path fill-rule="evenodd" clip-rule="evenodd" d="M16.989 25.2653C15.2215 24.9153 13.4692 23.9797 12.0517 22.5773C18.1452 20.195 22.946 16.065 25.3295 11.2595C26.859 17.6143 22.9542 23.6833 16.989 25.2653ZM2.55617 11.7472C4.39833 12.4122 5.55217 13.4283 6.60217 14.6592C6.47267 19.355 8.7745 23.1875 11.8918 25.466C5.61633 24.318 1.28333 18.2397 2.55617 11.7472ZM6.37 5.1905C8.97167 6.09117 11.6468 8.106 13.5205 10.57C11.8125 11.9047 10.0473 12.845 8.65317 13.468C7.33833 11.8673 5.796 10.4183 3.2305 9.51767C3.9305 7.83883 5.01667 6.36417 6.37 5.1905ZM18.8113 3.38217C18.0518 5.65483 16.7615 7.518 15.2705 9.01717C13.503 6.7445 11.1265 4.81717 8.6765 3.62833C11.837 2.002 15.5353 1.89233 18.8113 3.38217ZM24.0765 8.141C22.4385 13.4003 17.2083 18.2257 10.521 20.6523C9.66583 19.2838 9.0965 17.6715 8.95883 15.8772C12.3142 14.4783 18.4555 11.109 20.8623 4.5815C22.1655 5.53233 23.261 6.74333 24.0765 8.141ZM28 14C28 6.27317 21.728 0 14 0C6.27317 0 0 6.27317 0 14C0 21.7268 6.27317 28 14 28C21.6277 28 28 21.7957 28 14Z" fill="#F8F9F9"/>
<rect x="1" y="1" width="26" height="26" rx="13" stroke="#C5C5C5" stroke-width="2"/>
</svg>
