<svg width="14" height="14" viewBox="0 0 14 14" fill="none" xmlns="http://www.w3.org/2000/svg">
<path d="M11.0536 4.07931C10.8893 3.85066 10.7036 3.63273 10.5036 3.43265C9.6 2.54662 8.36429 2 7 2C5.06786 2 3.39286 3.10039 2.56071 4.70454C2.30714 5.19757 2.13214 5.73705 2.05357 6.30868C2.02143 6.53376 2 6.76599 2 7.00179C2 8.77742 2.925 10.3315 4.31786 11.2176C4.63571 11.4212 4.97857 11.5891 5.34286 11.7142C5.86071 11.8964 6.41786 12 7 12C7.98929 12 8.91071 11.707 9.68571 11.214C10.1464 10.921 10.5536 10.5566 10.8964 10.1315C11.5857 9.27403 12 8.18435 12 6.99821C12 5.90497 11.6464 4.89746 11.0536 4.07574V4.07931ZM11.2857 7.00179C11.2857 7.59128 11.1643 8.15577 10.9464 8.67024C10.9143 8.54162 10.8679 8.413 10.8143 8.29511C10.5821 7.80565 10.2286 7.54126 9.91429 7.30547C9.58571 7.05895 9.325 6.86602 9.21071 6.44802C9.03929 5.83351 9.26786 5.07253 9.76786 4.60093C9.93214 4.44373 10.1107 4.33298 10.2893 4.25438C10.9107 4.9975 11.2857 5.95498 11.2857 7.00179ZM2.71429 7.00179C2.71429 6.34084 2.87143 5.71204 3.13929 5.1547C3.33214 5.00107 3.53929 4.87603 3.76071 4.78671C4.21429 4.6045 4.675 4.59021 5.02857 4.74741C5.67857 5.0368 6.11071 5.97642 5.95357 6.7517C5.85714 7.22329 5.56786 7.46624 5.19643 7.77349C4.83929 8.07002 4.43571 8.40586 4.20714 8.99536C4.075 9.33476 4.03214 9.71347 4.06429 10.1136C3.23571 9.33119 2.71429 8.22722 2.71429 7.00179ZM7 11.289C6.23929 11.289 5.52857 11.089 4.91071 10.7388C4.72857 10.1672 4.71429 9.66702 4.875 9.25259C5.03571 8.83816 5.33929 8.58807 5.65714 8.32011C6.05714 7.98785 6.51429 7.60915 6.65714 6.89103C6.87857 5.79778 6.26429 4.51518 5.32143 4.0936C4.91786 3.9114 4.44643 3.8721 3.96786 3.97571C4.74286 3.19686 5.81786 2.71097 7.00357 2.71097C8.05357 2.71097 9.01429 3.09325 9.76071 3.72204C9.59643 3.81851 9.43214 3.93283 9.27857 4.07931C8.58571 4.73669 8.28214 5.76563 8.525 6.63737C8.70714 7.2876 9.12143 7.59843 9.48929 7.87353C9.77143 8.08432 10.0179 8.2701 10.175 8.59878C10.3286 8.92033 10.3536 9.32047 10.2571 9.78492C9.47143 10.7031 8.30714 11.2855 7.00714 11.2855L7 11.289Z" fill="#EEEEEE"/>
<path opacity="0.3" d="M8.42857 3.42857C9.44286 3.42857 10.3857 3.73214 11.175 4.25357C10.2821 2.89643 8.74643 2 7 2C4.23929 2 2 4.23929 2 7C2 8.74643 2.89643 10.2821 4.25357 11.175C3.73214 10.3857 3.42857 9.44286 3.42857 8.42857C3.42857 5.66786 5.66786 3.42857 8.42857 3.42857Z" fill="#F8F9F9"/>
<path opacity="0.2" d="M12.0004 6.99965C12.0004 5.98537 11.6969 5.04251 11.1754 4.25322C10.3862 3.73179 9.4433 3.42822 8.42902 3.42822C5.6683 3.42822 3.42902 5.66751 3.42902 8.42822C3.42902 9.44251 3.73259 10.3854 4.25402 11.1747C5.0433 11.6961 5.98616 11.9997 7.00045 11.9997C9.76116 11.9997 12.0004 9.76037 12.0004 6.99965Z" fill="#EEEEEE"/>
</svg>
