<svg width="24" height="24" viewBox="0 0 24 24" fill="none" xmlns="http://www.w3.org/2000/svg">
<rect x="0.5" y="0.5" width="23" height="23" rx="11.5" fill="black" fill-opacity="0.6" stroke="#959595"/>
<path d="M14.2858 6.28572C15.9086 6.28572 17.4172 6.77144 18.6801 7.60573C17.2515 5.43429 14.7943 4 12 4C7.58287 4 4 7.58287 4 12C4 14.7943 5.43429 17.2515 7.60573 18.6801C6.77144 17.4172 6.28572 15.9086 6.28572 14.2858C6.28572 9.86859 9.86859 6.28572 14.2858 6.28572Z" fill="#FCA84C"/>
<path d="M19.9995 12.0004C19.9995 10.3776 19.5138 8.869 18.6795 7.60614C17.4166 6.77185 15.908 6.28613 14.2852 6.28613C9.86803 6.28613 6.28516 9.869 6.28516 14.2862C6.28516 15.909 6.77087 17.4176 7.60516 18.6805C8.86802 19.5147 10.3766 20.0005 11.9995 20.0005C16.4166 20.0005 19.9995 16.4176 19.9995 12.0004Z" fill="#F9973E"/>
<path d="M19.8744 10.68C19.8058 10.2686 19.7087 9.86288 19.5773 9.48002C19.1432 8.17716 18.3892 7.02858 17.401 6.12001C17.1211 5.86286 16.824 5.61715 16.5099 5.4C15.3845 4.62857 14.0536 4.14286 12.6141 4.02857C12.4085 4.01143 12.2028 4 11.9972 4C11.7915 4 11.5859 4.01714 11.3802 4.02857C9.55232 4.17143 7.90148 4.92 6.62764 6.08572C6.31918 6.36572 6.02785 6.66858 5.76509 6.9943C4.6969 8.32001 4.05141 9.98859 4.01142 11.8115C4.01142 11.8743 4 11.9372 4 12C4 12.3543 4.02856 12.7029 4.07426 13.0457C4.30846 14.8172 5.10818 16.4115 6.30776 17.6172C6.58766 17.9029 6.89612 18.16 7.21601 18.4001C8.55268 19.4001 10.2035 20.0001 11.9972 20.0001C12.1571 20.0001 12.3113 19.9829 12.4656 19.9772C12.8769 19.9543 13.2824 19.9029 13.6766 19.8229C15.5274 19.4286 17.1382 18.3886 18.275 16.9543C18.5491 16.6058 18.8005 16.2343 19.0175 15.84C19.6402 14.7029 20.0001 13.3943 20.0001 12C20.0001 11.5486 19.9544 11.1086 19.8801 10.68H19.8744ZM18.3149 9.33716C16.8069 9.20573 15.3503 9.21716 13.9736 9.32002C13.9336 9.06859 13.8879 8.82859 13.8422 8.58287C14.8533 8.28001 15.8187 7.58858 16.5841 6.9143C17.3267 7.58287 17.9265 8.40573 18.3206 9.33716H18.3149ZM15.6473 6.20572C15.019 6.73715 14.3049 7.22858 13.6023 7.46287C13.4195 6.66858 13.2196 5.92572 13.0025 5.22858C13.9622 5.37143 14.8533 5.70858 15.6416 6.20572H15.6473ZM11.7573 5.15429C11.9972 5.90286 12.2257 6.7143 12.4313 7.58858C11.2774 7.50858 9.50662 7.02858 7.90148 6.51429C8.98681 5.70286 10.3121 5.20572 11.7573 5.15429ZM6.92468 7.40001C8.75832 8.01716 11.1575 8.70859 12.6712 8.74287C12.7169 8.97145 12.7569 9.20002 12.7969 9.4343C9.7294 9.79431 7.09605 10.5943 5.17101 11.3372C5.31953 9.82859 5.95931 8.46859 6.92468 7.40573V7.40001ZM5.17101 12.5829C7.05606 11.8286 9.78081 10.96 12.9683 10.5829C13.014 10.9429 13.0597 11.3143 13.0882 11.6857C12.3171 11.9029 11.5231 12.3315 10.7119 12.9829C9.92362 13.6172 9.56375 14.1943 9.20959 14.7543C8.91255 15.2286 8.60409 15.72 7.99859 16.32C7.7701 16.5486 7.52447 16.7543 7.26742 16.9543C6.08498 15.8286 5.30811 14.2972 5.15959 12.5772L5.17101 12.5829ZM11.9972 18.8572C10.5862 18.8572 9.27813 18.4286 8.18709 17.6972C8.40416 17.52 8.6098 17.3315 8.80973 17.1372C9.51234 16.44 9.8665 15.8686 10.1864 15.3658C10.5291 14.8172 10.7976 14.3886 11.4317 13.8743C12.0372 13.3886 12.6141 13.0515 13.1682 12.8572C13.2539 14.7486 13.1396 16.7543 12.7226 18.8172C12.4827 18.8401 12.2371 18.8572 11.9915 18.8572H11.9972ZM13.9393 18.5715C14.3164 16.5143 14.4135 14.5315 14.3278 12.6629C14.4877 12.6629 14.642 12.68 14.7962 12.7143C15.7787 12.9257 16.407 13.6915 16.824 14.2C17.2525 14.72 17.5095 15.2343 17.7323 15.7429C16.8526 17.0858 15.5102 18.1029 13.9393 18.5715ZM17.7037 13.4743C17.2182 12.8857 16.4013 11.8972 15.0361 11.6C14.7733 11.5429 14.5106 11.5257 14.2421 11.52C14.2135 11.1657 14.1735 10.8172 14.1278 10.4686C15.5788 10.36 17.1039 10.36 18.6805 10.5257C18.7833 11 18.8462 11.4915 18.8462 12C18.8462 12.8743 18.6748 13.7086 18.3721 14.48C18.1893 14.1543 17.9779 13.8172 17.698 13.4743H17.7037Z" fill="#DD6F1D"/>
<path fill-rule="evenodd" clip-rule="evenodd" d="M5.14286 12C5.14286 15.7871 8.21292 18.8572 12 18.8572C15.7871 18.8572 18.8572 15.7871 18.8572 12C18.8572 8.21292 15.7871 5.14286 12 5.14286C8.21292 5.14286 5.14286 8.21292 5.14286 12ZM12 4C7.58173 4 4 7.58173 4 12C4 16.4183 7.58173 20.0001 12 20.0001C16.4183 20.0001 20.0001 16.4183 20.0001 12C20.0001 7.58173 16.4183 4 12 4Z" fill="#AB5413"/>
</svg>
