<svg width="40" height="40" viewBox="0 0 40 40" fill="none" xmlns="http://www.w3.org/2000/svg">
<rect width="40" height="40" rx="20" fill="#EEEEEE"/>
<path d="M19.9942 13C15.5689 13 12 15.8957 12 19.4112C12 21.6931 13.4847 23.6912 15.7116 24.832L14.9579 27.6874C14.9437 27.7301 14.9415 27.7761 14.9516 27.82C14.9617 27.864 14.9836 27.9044 15.015 27.9364C15.0607 27.9772 15.1196 27.9999 15.1806 28C15.2312 27.996 15.2791 27.9756 15.3176 27.9422L18.561 25.724C19.0398 25.791 19.5224 25.8258 20.0058 25.8282C24.4255 25.8282 28 22.9325 28 19.4112C28 15.89 24.414 13 19.9942 13Z" fill="#959595"/>
</svg>
