<svg width="28" height="28" viewBox="0 0 28 28" fill="none" xmlns="http://www.w3.org/2000/svg">
<path opacity="0.5" d="M18 4C20.84 4 23.48 4.85 25.69 6.31C23.19 2.51 18.89 0 14 0C6.27 0 0 6.27 0 14C0 18.89 2.51 23.19 6.31 25.69C4.85 23.48 4 20.84 4 18C4 10.27 10.27 4 18 4Z" fill="#9CDD05"/>
<path d="M28 14C28 11.16 27.15 8.52 25.69 6.31C23.48 4.85 20.84 4 18 4C10.27 4 4 10.27 4 18C4 20.84 4.85 23.48 6.31 25.69C8.52 27.15 11.16 28 14 28C21.73 28 28 21.73 28 14Z" fill="#9CDD05"/>
<path d="M25.35 5.82208C24.89 5.18185 24.37 4.57163 23.81 4.01143C21.28 1.53055 17.82 0 14 0C8.59 0 3.9 3.0811 1.57 7.5727C0.86 8.9532 0.37 10.4637 0.15 12.0643C0.06 12.6945 0 13.3448 0 14.005C0 18.9768 2.59 23.3283 6.49 25.8092C7.38 26.3794 8.34 26.8496 9.36 27.1997C10.81 27.7099 12.37 28 14 28C16.77 28 19.35 27.1797 21.52 25.7992C22.81 24.9789 23.95 23.9586 24.91 22.7681C26.84 20.3673 28 17.3162 28 13.995C28 10.9339 27.01 8.1129 25.35 5.81208V5.82208ZM26 14.005C26 15.6556 25.66 17.2362 25.05 18.6767C24.96 18.3165 24.83 17.9564 24.68 17.6263C24.03 16.2558 23.04 15.5155 22.16 14.8553C21.24 14.1651 20.51 13.6249 20.19 12.4544C19.71 10.7338 20.35 8.60307 21.75 7.2826C22.21 6.84244 22.71 6.53233 23.21 6.31225C24.95 8.393 26 11.074 26 14.005ZM2 14.005C2 12.1543 2.44 10.3937 3.19 8.83315C3.73 8.403 4.31 8.05288 4.93 7.80279C6.2 7.2926 7.49 7.25259 8.48 7.69275C10.3 8.50304 11.51 11.134 11.07 13.3048C10.8 14.6252 9.99 15.3055 8.95 16.1658C7.95 16.9961 6.82 17.9364 6.18 19.587C5.81 20.5373 5.69 21.5977 5.78 22.7181C3.46 20.5273 2 17.4362 2 14.005ZM14 26.0093C11.87 26.0093 9.88 25.4491 8.15 24.4687C7.64 22.8682 7.6 21.4677 8.05 20.3073C8.5 19.1468 9.35 18.4466 10.24 17.6963C11.36 16.766 12.64 15.7056 13.04 13.6949C13.66 10.6338 11.94 7.04252 9.3 5.86209C8.17 5.35191 6.85 5.24187 5.51 5.53198C7.68 3.3512 10.69 1.99071 14.01 1.99071C16.95 1.99071 19.64 3.06109 21.73 4.82172C21.27 5.09182 20.81 5.41193 20.38 5.82208C18.44 7.66274 17.59 10.5438 18.27 12.9846C18.78 14.8053 19.94 15.6756 20.97 16.4459C21.76 17.0361 22.45 17.5563 22.89 18.4766C23.32 19.3769 23.39 20.4973 23.12 21.7978C20.92 24.3687 17.66 25.9993 14.02 25.9993L14 26.0093Z" fill="#F8F9F9"/>
<rect x="1" y="1" width="26" height="26" rx="13" stroke="#84BD00" stroke-width="2"/>
</svg>
