<svg width="28" height="28" viewBox="0 0 28 28" fill="none" xmlns="http://www.w3.org/2000/svg">
<path d="M13.5203 4.11035C15.0103 4.11035 16.2203 4.99035 16.2203 6.07035C16.2203 7.15035 15.0103 8.03035 13.5203 8.03035C12.0303 8.03035 10.8203 7.15035 10.8203 6.07035C10.8203 4.99035 12.0303 4.11035 13.5203 4.11035Z" fill="#616163"/>
<path d="M19.8519 6.82985C19.1119 7.25985 19.1119 8.65985 19.8519 9.94984C20.6019 11.2398 21.8119 11.9398 22.5519 11.5098C23.2919 11.0798 23.2919 9.67985 22.5519 8.38984C21.8019 7.09985 20.5919 6.39985 19.8519 6.82985Z" fill="#616163"/>
<path d="M13.2383 13.3702C13.2383 11.8902 14.3383 10.7002 15.6783 10.7002C17.0283 10.7002 18.1183 11.8902 18.1183 13.3702C18.1183 14.8502 17.0283 16.0402 15.6783 16.0402C14.3283 16.0402 13.2383 14.8502 13.2383 13.3702Z" fill="#616163"/>
<path fill-rule="evenodd" clip-rule="evenodd" d="M0 14C0 6.27 6.27 0 14 0C21.73 0 28 6.27 28 14C28 21.73 21.73 28 14 28C6.27 28 0 21.73 0 14ZM2 14C2 20.62 7.38 26 14 26C20.62 26 26 20.62 26 14C26 7.38 20.62 2 14 2C7.38 2 2 7.38 2 14Z" fill="#616163"/>
<rect x="1" y="1" width="26" height="26" rx="13" stroke="#959595" stroke-width="2"/>
<path opacity="0.4" d="M18 4C20.84 4 23.48 4.85 25.69 6.31C23.19 2.51 18.89 0 14 0C6.27 0 0 6.27 0 14C0 18.89 2.51 23.19 6.31 25.69C4.85 23.48 4 20.84 4 18C4 10.27 10.27 4 18 4Z" fill="#464655"/>
<path opacity="0.6" d="M28 14C28 11.16 27.15 8.52 25.69 6.31C23.48 4.85 20.84 4 18 4C10.27 4 4 10.27 4 18C4 20.84 4.85 23.48 6.31 25.69C8.52 27.15 11.16 28 14 28C21.73 28 28 21.73 28 14Z" fill="#464655"/>
</svg>
