<svg width="24" height="24" viewBox="0 0 24 24" fill="none" xmlns="http://www.w3.org/2000/svg">
<rect x="0.5" y="0.5" width="23" height="23" rx="11.5" fill="black" fill-opacity="0.6" stroke="#959595"/>
<path d="M14.2856 6.28568C15.9084 6.28568 17.417 6.77139 18.6798 7.60566C17.2512 5.43427 14.7941 4 11.9999 4C7.58281 4 4 7.58281 4 11.9999C4 14.7941 5.43427 17.2512 7.60566 18.6798C6.77139 17.417 6.28568 15.9084 6.28568 14.2856C6.28568 9.86849 9.86849 6.28568 14.2856 6.28568Z" fill="white"/>
<path d="M14.2856 6.28568C15.9084 6.28568 17.417 6.77139 18.6798 7.60566C17.2512 5.43427 14.7941 4 11.9999 4C7.58281 4 4 7.58281 4 11.9999C4 14.7941 5.43427 17.2512 7.60566 18.6798C6.77139 17.417 6.28568 15.9084 6.28568 14.2856C6.28568 9.86849 9.86849 6.28568 14.2856 6.28568Z" fill="#9CDD05" fill-opacity="0.5"/>
<path d="M19.9993 12.0003C19.9993 10.3775 19.5135 8.86895 18.6793 7.60611C17.4164 6.77184 15.9079 6.28613 14.285 6.28613C9.86796 6.28613 6.28516 9.86894 6.28516 14.286C6.28516 15.9089 6.77086 17.4174 7.60514 18.6802C8.86798 19.5145 10.3765 20.0002 11.9994 20.0002C16.4164 20.0002 19.9993 16.4174 19.9993 12.0003Z" fill="#9CDD05"/>
<path d="M18.4855 7.32686C18.2227 6.96102 17.9255 6.61233 17.6055 6.29222C16.1598 4.87459 14.1827 4 11.9999 4C8.9085 4 6.22854 5.7606 4.89713 8.3272C4.49142 9.11604 4.21143 9.9792 4.08571 10.8938C4.03429 11.2539 4 11.6255 4 12.0027C4 14.8437 5.47998 17.3303 7.70852 18.7479C8.21708 19.0737 8.76565 19.3424 9.3485 19.5425C10.1771 19.834 11.0685 19.9998 11.9999 19.9998C13.5827 19.9998 15.057 19.531 16.297 18.7422C17.0341 18.2735 17.6855 17.6904 18.2341 17.0102C19.3369 15.6383 19.9998 13.8948 19.9998 11.997C19.9998 10.2479 19.4341 8.63588 18.4855 7.32114V7.32686ZM18.8569 12.0027C18.8569 12.9459 18.6627 13.8491 18.3141 14.6722C18.2627 14.4664 18.1884 14.2607 18.1027 14.072C17.7312 13.2889 17.1655 12.8659 16.6627 12.4886C16.137 12.0942 15.7198 11.7855 15.537 11.1167C15.2627 10.1335 15.6284 8.91597 16.4284 8.16143C16.6913 7.90991 16.977 7.73271 17.2627 7.60695C18.2569 8.79593 18.8569 10.3279 18.8569 12.0027ZM5.14284 12.0027C5.14284 10.9452 5.39427 9.93918 5.82283 9.04745C6.1314 8.80165 6.46282 8.60158 6.8171 8.45867C7.54281 8.16714 8.27994 8.14428 8.84565 8.39579C9.88563 8.85881 10.5771 10.3622 10.3256 11.6026C10.1713 12.3572 9.70849 12.7459 9.11421 13.2375C8.54279 13.7119 7.89709 14.2492 7.53138 15.1924C7.31995 15.7355 7.25138 16.3414 7.30281 16.9816C5.97712 15.7297 5.14284 13.9634 5.14284 12.0027ZM11.9999 18.8622C10.7828 18.8622 9.64564 18.5421 8.65708 17.9819C8.36565 17.0673 8.3428 16.2671 8.59994 15.604C8.85708 14.9409 9.34278 14.5408 9.85135 14.112C10.4913 13.5804 11.2228 12.9745 11.4513 11.8255C11.8056 10.0764 10.8228 8.02424 9.31421 7.34972C8.66851 7.05819 7.91423 6.99531 7.14853 7.16109C8.38851 5.91494 10.1085 5.13753 12.0056 5.13753C13.6856 5.13753 15.2227 5.74917 16.417 6.75523C16.1541 6.90957 15.8913 7.09249 15.6456 7.32686C14.537 8.37865 14.0513 10.0249 14.4399 11.4197C14.7313 12.46 15.3941 12.9574 15.9827 13.3975C16.4341 13.7348 16.8284 14.032 17.0798 14.5579C17.3255 15.0724 17.3655 15.7126 17.2112 16.4557C15.9541 17.9248 14.0913 18.8565 12.0113 18.8565L11.9999 18.8622Z" fill="#F8F9F9"/>
<path fill-rule="evenodd" clip-rule="evenodd" d="M5.14284 11.9999C5.14284 15.7869 8.21285 18.8569 11.9999 18.8569C15.7869 18.8569 18.8569 15.7869 18.8569 11.9999C18.8569 8.21285 15.7869 5.14284 11.9999 5.14284C8.21285 5.14284 5.14284 8.21285 5.14284 11.9999ZM11.9999 4C7.58167 4 4 7.58167 4 11.9999C4 16.4181 7.58167 19.9998 11.9999 19.9998C16.4181 19.9998 19.9998 16.4181 19.9998 11.9999C19.9998 7.58167 16.4181 4 11.9999 4Z" fill="#84BD00"/>
</svg>
