<svg width="28" height="28" viewBox="0 0 28 28" fill="none" xmlns="http://www.w3.org/2000/svg">
<path d="M18 4C20.84 4 23.48 4.85 25.69 6.31C23.19 2.51 18.89 0 14 0C6.27 0 0 6.27 0 14C0 18.89 2.51 23.19 6.31 25.69C4.85 23.48 4 20.84 4 18C4 10.27 10.27 4 18 4Z" fill="#FCA84C"/>
<path d="M28 14C28 11.16 27.15 8.52 25.69 6.31C23.48 4.85 20.84 4 18 4C10.27 4 4 10.27 4 18C4 20.84 4.85 23.48 6.31 25.69C8.52 27.15 11.16 28 14 28C21.73 28 28 21.73 28 14Z" fill="#F9973E"/>
<path d="M27.7801 11.69C27.6601 10.97 27.4902 10.26 27.2603 9.59C26.5005 7.31 25.181 5.3 23.4516 3.71C22.9618 3.26 22.442 2.83 21.8922 2.45C19.9229 1.1 17.5937 0.25 15.0746 0.05C14.7147 0.02 14.3549 0 13.995 0C13.6351 0 13.2753 0.03 12.9154 0.05C9.71653 0.3 6.82756 1.61 4.59836 3.65C4.05855 4.14 3.54873 4.67 3.0889 5.24C1.21956 7.56 0.0899679 10.48 0.0199929 13.67C0.0199929 13.78 0 13.89 0 14C0 14.62 0.0499821 15.23 0.129954 15.83C0.539807 18.93 1.93931 21.72 4.03856 23.83C4.52838 24.33 5.06819 24.78 5.62799 25.2C7.96715 26.95 10.8561 28 13.995 28C14.2749 28 14.5448 27.97 14.8147 27.96C15.5345 27.92 16.2442 27.83 16.934 27.69C20.1728 27 22.9918 25.18 24.9811 22.67C25.4609 22.06 25.9008 21.41 26.2806 20.72C27.3702 18.73 28 16.44 28 14C28 13.21 27.92 12.44 27.7901 11.69H27.7801ZM25.0511 9.34C22.412 9.11 19.8629 9.13 17.4538 9.31C17.3838 8.87 17.3038 8.45 17.2238 8.02C18.9932 7.49 20.6826 6.28 22.0221 5.1C23.3217 6.27 24.3713 7.71 25.061 9.34H25.0511ZM20.3827 3.86C19.2831 4.79 18.0336 5.65 16.804 6.06C16.4841 4.67 16.1342 3.37 15.7544 2.15C17.4338 2.4 18.9932 2.99 20.3727 3.86H20.3827ZM13.5752 2.02C13.995 3.33 14.3949 4.75 14.7547 6.28C12.7355 6.14 9.63656 5.3 6.82756 4.4C8.72688 2.98 11.0461 2.11 13.5752 2.02ZM5.11817 5.95C8.32703 7.03 12.5255 8.24 15.1746 8.3C15.2546 8.7 15.3245 9.1 15.3945 9.51C10.0264 10.14 5.41806 11.54 2.04927 12.84C2.30918 10.2 3.42878 7.82 5.11817 5.96V5.95ZM2.04927 15.02C5.34809 13.7 10.1164 12.18 15.6944 11.52C15.7744 12.15 15.8543 12.8 15.9043 13.45C14.5548 13.83 13.1653 14.58 11.7458 15.72C10.3663 16.83 9.73652 17.84 9.11674 18.82C8.59693 19.65 8.05712 20.51 6.9975 21.56C6.59764 21.96 6.1678 22.32 5.71796 22.67C3.6487 20.7 2.28918 18.02 2.02928 15.01L2.04927 15.02ZM13.995 26C11.5259 26 9.2367 25.25 7.32738 23.97C7.70725 23.66 8.06712 23.33 8.41699 22.99C9.64655 21.77 10.2663 20.77 10.8261 19.89C11.4259 18.93 11.8958 18.18 13.0054 17.28C14.065 16.43 15.0746 15.84 16.0443 15.5C16.1942 18.81 15.9943 22.32 15.2645 25.93C14.8447 25.97 14.4149 26 13.985 26H13.995ZM17.3938 25.5C18.0536 21.9 18.2235 18.43 18.0735 15.16C18.3534 15.16 18.6233 15.19 18.8933 15.25C20.6126 15.62 21.7122 16.96 22.442 17.85C23.1917 18.76 23.6416 19.66 24.0314 20.55C22.492 22.9 20.1428 24.68 17.3938 25.5ZM23.9814 16.58C23.1317 15.55 21.7022 13.82 19.3131 13.3C18.8533 13.2 18.3934 13.17 17.9236 13.16C17.8736 12.54 17.8036 11.93 17.7237 11.32C20.2628 11.13 22.9318 11.13 25.6908 11.42C25.8708 12.25 25.9807 13.11 25.9807 14C25.9807 15.53 25.6808 16.99 25.151 18.34C24.8311 17.77 24.4613 17.18 23.9714 16.58H23.9814Z" fill="#DD6F1D"/>
<rect x="1" y="1" width="26" height="26" rx="13" stroke="#AB5413" stroke-width="2"/>
</svg>
