<svg width="80" height="16" viewBox="0 0 80 16" fill="none" xmlns="http://www.w3.org/2000/svg">
<path d="M14.6431 7.17741L11.8306 9.60429L12.6875 13.2337C12.7347 13.4307 12.7226 13.6373 12.6525 13.8274C12.5824 14.0175 12.4575 14.1826 12.2937 14.3018C12.1298 14.4209 11.9343 14.4889 11.7319 14.497C11.5294 14.5051 11.3291 14.4531 11.1562 14.3474L7.99996 12.4049L4.84184 14.3474C4.66898 14.4525 4.4689 14.504 4.2668 14.4956C4.06469 14.4872 3.8696 14.4191 3.70609 14.3001C3.54257 14.181 3.41795 14.0162 3.3479 13.8264C3.27786 13.6367 3.26553 13.4304 3.31246 13.2337L4.17246 9.60429L1.35996 7.17741C1.20702 7.04523 1.09641 6.87092 1.04195 6.67625C0.987486 6.48159 0.99158 6.27519 1.05372 6.08283C1.11586 5.89048 1.23329 5.72069 1.39135 5.59468C1.54941 5.46867 1.7411 5.39201 1.94246 5.37429L5.62996 5.07679L7.05246 1.63429C7.12946 1.44667 7.26051 1.28619 7.42894 1.17325C7.59738 1.06031 7.7956 1 7.9984 1C8.2012 1 8.39942 1.06031 8.56785 1.17325C8.73629 1.28619 8.86734 1.44667 8.94434 1.63429L10.3662 5.07679L14.0537 5.37429C14.2555 5.39135 14.4477 5.46758 14.6064 5.59342C14.765 5.71925 14.883 5.88911 14.9455 6.0817C15.008 6.27429 15.0123 6.48104 14.9579 6.67607C14.9034 6.87109 14.7926 7.04571 14.6393 7.17804L14.6431 7.17741Z" fill="#FFCC00"/>
<path d="M30.6431 7.17741L27.8306 9.60429L28.6875 13.2337C28.7347 13.4307 28.7226 13.6373 28.6525 13.8274C28.5824 14.0175 28.4575 14.1826 28.2937 14.3018C28.1298 14.4209 27.9343 14.4889 27.7319 14.497C27.5294 14.5051 27.3291 14.4531 27.1562 14.3474L24 12.4049L20.8418 14.3474C20.669 14.4525 20.4689 14.504 20.2668 14.4956C20.0647 14.4872 19.8696 14.4191 19.7061 14.3001C19.5426 14.181 19.4179 14.0162 19.3479 13.8264C19.2779 13.6367 19.2655 13.4304 19.3125 13.2337L20.1725 9.60429L17.36 7.17741C17.207 7.04523 17.0964 6.87092 17.042 6.67625C16.9875 6.48159 16.9916 6.27519 17.0537 6.08283C17.1159 5.89048 17.2333 5.72069 17.3914 5.59468C17.5494 5.46867 17.7411 5.39201 17.9425 5.37429L21.63 5.07679L23.0525 1.63429C23.1295 1.44667 23.2605 1.28619 23.4289 1.17325C23.5974 1.06031 23.7956 1 23.9984 1C24.2012 1 24.3994 1.06031 24.5679 1.17325C24.7363 1.28619 24.8673 1.44667 24.9443 1.63429L26.3662 5.07679L30.0537 5.37429C30.2555 5.39135 30.4477 5.46758 30.6064 5.59342C30.765 5.71925 30.883 5.88911 30.9455 6.0817C31.008 6.27429 31.0123 6.48104 30.9579 6.67607C30.9034 6.87109 30.7926 7.04571 30.6393 7.17804L30.6431 7.17741Z" fill="#FFCC00"/>
<path d="M46.6431 7.17741L43.8306 9.60429L44.6875 13.2337C44.7347 13.4307 44.7226 13.6373 44.6525 13.8274C44.5824 14.0175 44.4575 14.1826 44.2937 14.3018C44.1298 14.4209 43.9343 14.4889 43.7319 14.497C43.5294 14.5051 43.3291 14.4531 43.1562 14.3474L40 12.4049L36.8418 14.3474C36.669 14.4525 36.4689 14.504 36.2668 14.4956C36.0647 14.4872 35.8696 14.4191 35.7061 14.3001C35.5426 14.181 35.4179 14.0162 35.3479 13.8264C35.2779 13.6367 35.2655 13.4304 35.3125 13.2337L36.1725 9.60429L33.36 7.17741C33.207 7.04523 33.0964 6.87092 33.042 6.67625C32.9875 6.48159 32.9916 6.27519 33.0537 6.08283C33.1159 5.89048 33.2333 5.72069 33.3914 5.59468C33.5494 5.46867 33.7411 5.39201 33.9425 5.37429L37.63 5.07679L39.0525 1.63429C39.1295 1.44667 39.2605 1.28619 39.4289 1.17325C39.5974 1.06031 39.7956 1 39.9984 1C40.2012 1 40.3994 1.06031 40.5679 1.17325C40.7363 1.28619 40.8673 1.44667 40.9443 1.63429L42.3662 5.07679L46.0537 5.37429C46.2555 5.39135 46.4477 5.46758 46.6064 5.59342C46.765 5.71925 46.883 5.88911 46.9455 6.0817C47.008 6.27429 47.0123 6.48104 46.9579 6.67607C46.9034 6.87109 46.7926 7.04571 46.6393 7.17804L46.6431 7.17741Z" fill="#FFCC00"/>
<path d="M62.6431 7.17741L59.8306 9.60429L60.6875 13.2337C60.7347 13.4307 60.7226 13.6373 60.6525 13.8274C60.5824 14.0175 60.4575 14.1826 60.2937 14.3018C60.1298 14.4209 59.9343 14.4889 59.7319 14.497C59.5294 14.5051 59.3291 14.4531 59.1562 14.3474L56 12.4049L52.8418 14.3474C52.669 14.4525 52.4689 14.504 52.2668 14.4956C52.0647 14.4872 51.8696 14.4191 51.7061 14.3001C51.5426 14.181 51.4179 14.0162 51.3479 13.8264C51.2779 13.6367 51.2655 13.4304 51.3125 13.2337L52.1725 9.60429L49.36 7.17741C49.207 7.04523 49.0964 6.87092 49.042 6.67625C48.9875 6.48159 48.9916 6.27519 49.0537 6.08283C49.1159 5.89048 49.2333 5.72069 49.3914 5.59468C49.5494 5.46867 49.7411 5.39201 49.9425 5.37429L53.63 5.07679L55.0525 1.63429C55.1295 1.44667 55.2605 1.28619 55.4289 1.17325C55.5974 1.06031 55.7956 1 55.9984 1C56.2012 1 56.3994 1.06031 56.5679 1.17325C56.7363 1.28619 56.8673 1.44667 56.9443 1.63429L58.3662 5.07679L62.0537 5.37429C62.2555 5.39135 62.4477 5.46758 62.6064 5.59342C62.765 5.71925 62.883 5.88911 62.9455 6.0817C63.008 6.27429 63.0123 6.48104 62.9579 6.67607C62.9034 6.87109 62.7926 7.04571 62.6393 7.17804L62.6431 7.17741Z" fill="#FFCC00"/>
<path d="M78.6431 7.17741L75.8306 9.60429L76.6875 13.2337C76.7347 13.4307 76.7226 13.6373 76.6525 13.8274C76.5824 14.0175 76.4575 14.1826 76.2937 14.3018C76.1298 14.4209 75.9343 14.4889 75.7319 14.497C75.5294 14.5051 75.3291 14.4531 75.1562 14.3474L72 12.4049L68.8418 14.3474C68.669 14.4525 68.4689 14.504 68.2668 14.4956C68.0647 14.4872 67.8696 14.4191 67.7061 14.3001C67.5426 14.181 67.4179 14.0162 67.3479 13.8264C67.2779 13.6367 67.2655 13.4304 67.3125 13.2337L68.1725 9.60429L65.36 7.17741C65.207 7.04523 65.0964 6.87092 65.042 6.67625C64.9875 6.48159 64.9916 6.27519 65.0537 6.08283C65.1159 5.89048 65.2333 5.72069 65.3914 5.59468C65.5494 5.46867 65.7411 5.39201 65.9425 5.37429L69.63 5.07679L71.0525 1.63429C71.1295 1.44667 71.2605 1.28619 71.4289 1.17325C71.5974 1.06031 71.7956 1 71.9984 1C72.2012 1 72.3994 1.06031 72.5679 1.17325C72.7363 1.28619 72.8673 1.44667 72.9443 1.63429L74.3662 5.07679L78.0537 5.37429C78.2555 5.39135 78.4477 5.46758 78.6064 5.59342C78.765 5.71925 78.883 5.88911 78.9455 6.0817C79.008 6.27429 79.0123 6.48104 78.9579 6.67607C78.9034 6.87109 78.7926 7.04571 78.6393 7.17804L78.6431 7.17741Z" fill="#D8D8D8"/>
<g clip-path="url(#clip0_74_3654)">
<path d="M78.6431 7.17741L75.8306 9.60429L76.6875 13.2337C76.7347 13.4307 76.7226 13.6373 76.6525 13.8274C76.5824 14.0175 76.4575 14.1826 76.2937 14.3018C76.1298 14.4209 75.9343 14.4889 75.7319 14.497C75.5294 14.5051 75.3291 14.4531 75.1562 14.3474L72 12.4049L68.8418 14.3474C68.669 14.4525 68.4689 14.504 68.2668 14.4956C68.0647 14.4872 67.8696 14.4191 67.7061 14.3001C67.5426 14.181 67.4179 14.0162 67.3479 13.8264C67.2779 13.6367 67.2655 13.4304 67.3125 13.2337L68.1725 9.60429L65.36 7.17741C65.207 7.04523 65.0964 6.87092 65.042 6.67625C64.9875 6.48159 64.9916 6.27519 65.0537 6.08283C65.1159 5.89048 65.2333 5.72069 65.3914 5.59468C65.5494 5.46867 65.7411 5.39201 65.9425 5.37429L69.63 5.07679L71.0525 1.63429C71.1295 1.44667 71.2605 1.28619 71.4289 1.17325C71.5974 1.06031 71.7956 1 71.9984 1C72.2012 1 72.3994 1.06031 72.5679 1.17325C72.7363 1.28619 72.8673 1.44667 72.9443 1.63429L74.3662 5.07679L78.0537 5.37429C78.2555 5.39135 78.4477 5.46758 78.6064 5.59342C78.765 5.71925 78.883 5.88911 78.9455 6.0817C79.008 6.27429 79.0123 6.48104 78.9579 6.67607C78.9034 6.87109 78.7926 7.04571 78.6393 7.17804L78.6431 7.17741Z" fill="#FFCC00"/>
</g>
<defs>
<clipPath id="clip0_74_3654">
<rect width="8" height="16" fill="white" transform="translate(64)"/>
</clipPath>
</defs>
</svg>
