<svg width="14" height="14" viewBox="0 0 14 14" fill="none" xmlns="http://www.w3.org/2000/svg">
<path d="M7 0.875C5.72409 0.876447 4.50085 1.38394 3.59865 2.28615C2.69644 3.18835 2.18895 4.41159 2.1875 5.6875C2.1875 9.80547 6.5625 12.9155 6.74898 13.0457C6.82255 13.0972 6.91018 13.1249 7 13.1249C7.08982 13.1249 7.17745 13.0972 7.25102 13.0457C7.4375 12.9155 11.8125 9.80547 11.8125 5.6875C11.8111 4.41159 11.3036 3.18835 10.4014 2.28615C9.49915 1.38394 8.27591 0.876447 7 0.875ZM7 3.9375C7.34612 3.9375 7.68446 4.04014 7.97225 4.23243C8.26003 4.42472 8.48434 4.69803 8.61679 5.0178C8.74924 5.33757 8.7839 5.68944 8.71637 6.02891C8.64885 6.36837 8.48218 6.6802 8.23744 6.92494C7.99269 7.16968 7.68087 7.33635 7.34141 7.40387C7.00194 7.4714 6.65007 7.43674 6.3303 7.30429C6.01053 7.17184 5.73722 6.94753 5.54493 6.65975C5.35264 6.37196 5.25 6.03362 5.25 5.6875C5.25 5.22337 5.43437 4.77825 5.76256 4.45006C6.09075 4.12187 6.53587 3.9375 7 3.9375Z" fill="#D8D8D8"/>
</svg>
