<svg width="28" height="28" viewBox="0 0 28 28" fill="none" xmlns="http://www.w3.org/2000/svg">
<path fill-rule="evenodd" clip-rule="evenodd" d="M14 0C21.7268 0 28 6.27317 28 14C28 21.7268 21.7268 28 14 28C6.27317 28 0 21.7268 0 14C0 6.27317 6.27317 0 14 0ZM14 5.83333C17.542 5.83333 20.4167 8.708 20.4167 12.25C20.4167 15.792 17.542 18.6667 14 18.6667C10.458 18.6667 7.58333 15.792 7.58333 12.25C7.58333 8.708 10.458 5.83333 14 5.83333ZM15.862 12.082C16.3217 11.7227 16.6133 11.207 16.6133 10.5C16.6133 8.974 15.4467 8.16667 14 8.16667C12.5533 8.16667 11.3867 8.974 11.3867 10.5C11.3867 11.207 11.6783 11.7227 12.138 12.082C11.4765 12.5078 11.1172 13.1927 11.1172 13.9662C11.1172 15.4023 12.1485 16.3333 14 16.3333C15.8515 16.3333 16.8828 15.4023 16.8828 13.9662C16.8828 13.1927 16.5235 12.5078 15.862 12.082ZM14 14.651C13.3723 14.651 12.9115 14.3033 12.9115 13.7083C12.9115 13.1133 13.3723 12.7657 14 12.7657C14.6277 12.7657 15.0885 13.1133 15.0885 13.7083C15.0885 14.3033 14.6277 14.651 14 14.651ZM14 9.849C14.5052 9.849 14.819 10.1745 14.819 10.612C14.819 11.0495 14.5052 11.375 14 11.375C13.4948 11.375 13.181 11.0495 13.181 10.612C13.181 10.1745 13.4948 9.849 14 9.849Z" fill="#465A63"/>
<path opacity="0.2" d="M18 4C20.84 4 23.48 4.85 25.69 6.31C23.19 2.51 18.89 0 14 0C6.27 0 0 6.27 0 14C0 18.89 2.51 23.19 6.31 25.69C4.85 23.48 4 20.84 4 18C4 10.27 10.27 4 18 4Z" fill="white"/>
<rect x="1" y="1" width="26" height="26" rx="13" stroke="#284552" stroke-width="2"/>
</svg>
