<svg width="14" height="14" viewBox="0 0 14 14" fill="none" xmlns="http://www.w3.org/2000/svg">
<path d="M12 6.99981C12 5.63911 11.4536 4.40697 10.575 3.50698C10.575 3.50698 10.5715 3.50698 10.5679 3.50341C10.5108 3.44627 10.45 3.39269 10.3929 3.33912C10.3572 3.30698 10.3215 3.27127 10.2822 3.23912C10.2072 3.17127 10.1286 3.11055 10.05 3.04627C10.0465 3.04627 10.0429 3.03913 10.0393 3.03555C9.19647 2.38913 8.14648 2.00342 7.00363 2.00342C5.86078 2.00342 4.80722 2.38913 3.96436 3.03198C3.96436 3.03198 3.95722 3.03913 3.95365 3.0427C3.87508 3.10341 3.79651 3.1677 3.72151 3.23555C3.68222 3.2677 3.64651 3.30341 3.6108 3.33555C3.55008 3.38912 3.49294 3.44269 3.4358 3.49984C3.4358 3.49984 3.43223 3.49984 3.42865 3.50341C2.54652 4.40697 2.00009 5.63911 2.00009 6.99981C2.00009 8.47481 2.64294 9.79623 3.65722 10.7105C3.67151 10.7212 3.6858 10.7355 3.70008 10.7498C4.58222 11.5248 5.73578 11.9998 7.00006 11.9998C8.26434 11.9998 9.42147 11.5248 10.3 10.7498C10.3143 10.7391 10.3286 10.7248 10.3429 10.7105C11.3572 9.79623 12 8.47481 12 6.99981ZM11.2857 6.99981C11.2857 8.13909 10.8357 9.17123 10.1108 9.93908C10 9.78551 9.8929 9.63194 9.80004 9.46766L9.94647 9.3998C10.125 9.31409 10.2 9.10337 10.1143 8.9248C10.0286 8.74623 9.8179 8.67123 9.63933 8.75695L9.4929 8.8248C9.40362 8.60338 9.33219 8.37123 9.27862 8.13552L9.43933 8.11052C9.63576 8.07838 9.7679 7.89624 9.73576 7.70338C9.70361 7.50695 9.52147 7.37481 9.32862 7.40696L9.1679 7.43196C9.15719 7.29267 9.14648 7.14981 9.14648 7.00339C9.14648 6.90339 9.15719 6.80696 9.16076 6.70696L9.3179 6.72839C9.51433 6.75339 9.6929 6.61767 9.7179 6.42125C9.7429 6.22482 9.60719 6.04625 9.41076 6.02125L9.24647 5.99982C9.29647 5.76054 9.3679 5.53197 9.45004 5.3034L9.59647 5.36768C9.77504 5.44625 9.98933 5.36768 10.0679 5.18554C10.1465 5.00697 10.0679 4.79269 9.88576 4.71412L9.73576 4.64626C9.84647 4.43912 9.97147 4.24269 10.1072 4.05698C10.8358 4.82483 11.2857 5.86054 11.2857 6.99981ZM3.89294 4.05698C4.02865 4.24269 4.15365 4.43912 4.26436 4.64626L4.11436 4.71412C3.93579 4.79269 3.85365 5.00697 3.93222 5.18554C4.01079 5.36411 4.22508 5.44625 4.40365 5.36768L4.55008 5.3034C4.63222 5.5284 4.70365 5.76054 4.75365 5.99982L4.58936 6.02125C4.39293 6.04625 4.25722 6.22482 4.28222 6.42125C4.30722 6.61767 4.48579 6.75339 4.68222 6.72839L4.83936 6.70696C4.8465 6.80696 4.85364 6.90339 4.85364 7.00339C4.85364 7.14624 4.84293 7.2891 4.83222 7.43196L4.6715 7.40696C4.47508 7.37481 4.29293 7.51053 4.26436 7.70338C4.23222 7.89981 4.36793 8.08195 4.56079 8.11052L4.7215 8.13552C4.66793 8.37123 4.59293 8.60338 4.50722 8.8248L4.36079 8.75695C4.18222 8.67123 3.97151 8.74623 3.88579 8.9248C3.80008 9.10337 3.87508 9.31766 4.05365 9.3998L4.20008 9.46766C4.10722 9.63194 4.00008 9.78908 3.88937 9.93908C3.16437 9.17123 2.71437 8.13909 2.71437 6.99981C2.71437 5.86054 3.16437 4.82483 3.89294 4.05698ZM4.42865 10.4212C4.58222 10.2177 4.7215 9.9998 4.85007 9.7748L5.0215 9.85694C5.20007 9.94265 5.41078 9.86765 5.4965 9.68908C5.58221 9.51051 5.50721 9.29623 5.32864 9.21409L5.15364 9.13194C5.26793 8.84623 5.36078 8.54981 5.42864 8.24624L5.61793 8.27481C5.81435 8.30695 5.9965 8.17124 6.02507 7.97838C6.05721 7.78195 5.9215 7.59981 5.72864 7.57124L5.53935 7.54267C5.55721 7.3641 5.56793 7.18553 5.56793 7.00339C5.56793 6.87124 5.55721 6.74267 5.5465 6.6141L5.73935 6.5891C5.93578 6.5641 6.07149 6.38553 6.04649 6.18911C6.02149 5.99268 5.84292 5.85696 5.6465 5.88196L5.45721 5.90696C5.3965 5.59982 5.30721 5.3034 5.20007 5.01411L5.37864 4.93554C5.55721 4.85697 5.63935 4.64269 5.56078 4.46412C5.48221 4.28555 5.26793 4.2034 5.08936 4.28197L4.91436 4.36055C4.7715 4.08912 4.60365 3.83198 4.4215 3.58555C5.13936 3.0427 6.02864 2.7177 6.99292 2.7177C7.9572 2.7177 8.84648 3.0427 9.56433 3.58555C9.38219 3.82841 9.21433 4.08555 9.07148 4.36055L8.89648 4.28197C8.71791 4.2034 8.50362 4.28197 8.42505 4.46412C8.34648 4.64269 8.42505 4.85697 8.60719 4.93554L8.78576 5.01411C8.67862 5.3034 8.58934 5.59982 8.52862 5.90696L8.33934 5.88196C8.14291 5.85696 7.96434 5.99268 7.93934 6.18911C7.91434 6.38553 8.05005 6.5641 8.24648 6.5891L8.43934 6.6141C8.43219 6.74267 8.41791 6.87124 8.41791 7.00339C8.41791 7.18553 8.42862 7.3641 8.44648 7.54267L8.2572 7.57124C8.06077 7.60338 7.92863 7.78552 7.96077 7.97838C7.99291 8.17481 8.17505 8.30695 8.36791 8.27481L8.55719 8.24624C8.62505 8.55338 8.71791 8.8498 8.83219 9.13194L8.65719 9.21409C8.47862 9.2998 8.40362 9.51051 8.48934 9.68908C8.57505 9.86765 8.78576 9.94265 8.96433 9.85694L9.13576 9.7748C9.26076 9.9998 9.40362 10.2141 9.55719 10.4212C8.83933 10.9605 7.95005 11.2855 6.98577 11.2855C6.02149 11.2855 5.13221 10.9605 4.41436 10.4212H4.42865Z" fill="#EEEEEE"/>
<path opacity="0.3" d="M8.42853 3.42856C9.44281 3.42856 10.3857 3.73213 11.1749 4.25356C10.2821 2.89642 8.74639 2 6.99997 2C4.23927 2 2 4.23927 2 6.99997C2 8.74639 2.89642 10.2821 4.25356 11.1749C3.73213 10.3857 3.42856 9.44281 3.42856 8.42853C3.42856 5.66783 5.66783 3.42856 8.42853 3.42856Z" fill="#F8F9F9"/>
<path opacity="0.2" d="M12.0005 6.99963C12.0005 5.98535 11.6969 5.0425 11.1755 4.25322C10.3862 3.73179 9.44335 3.42822 8.42908 3.42822C5.66838 3.42822 3.42911 5.66749 3.42911 8.42819C3.42911 9.44247 3.73268 10.3853 4.2541 11.1746C5.04338 11.696 5.98623 11.9996 7.00051 11.9996C9.76121 11.9996 12.0005 9.76032 12.0005 6.99963Z" fill="#EEEEEE"/>
</svg>
