<svg width="28" height="28" viewBox="0 0 28 28" fill="none" xmlns="http://www.w3.org/2000/svg">
<path d="M28 14C28 11.16 27.15 8.52 25.69 6.31C23.48 4.85 20.84 4 18 4C10.27 4 4 10.27 4 18C4 20.84 4.85 23.48 6.31 25.69C8.52 27.15 11.16 28 14 28C21.73 28 28 21.73 28 14Z" fill="#F4F5F6"/>
<path d="M28 13.9998C28 10.1898 26.47 6.73977 24.01 4.21977C24.01 4.21977 24 4.21977 23.99 4.20977C23.83 4.04977 23.66 3.89977 23.5 3.74977C23.4 3.65977 23.3 3.55977 23.19 3.46977C22.98 3.27977 22.76 3.10977 22.54 2.92977C22.53 2.92977 22.52 2.90977 22.51 2.89977C20.15 1.08977 17.21 0.00976562 14.01 0.00976562C10.81 0.00976562 7.86 1.08977 5.5 2.88977C5.5 2.88977 5.48 2.90977 5.47 2.91977C5.25 3.08977 5.03 3.26977 4.82 3.45977C4.71 3.54977 4.61 3.64977 4.51 3.73977C4.34 3.88977 4.18 4.03977 4.02 4.19977C4.02 4.19977 4.01 4.19977 4 4.20977C1.53 6.73977 0 10.1898 0 13.9998C0 18.1298 1.8 21.8298 4.64 24.3898C4.68 24.4198 4.72 24.4598 4.76 24.4998C7.23 26.6698 10.46 27.9998 14 27.9998C17.54 27.9998 20.78 26.6698 23.24 24.4998C23.28 24.4698 23.32 24.4298 23.36 24.3898C26.2 21.8298 28 18.1298 28 13.9998ZM26 13.9998C26 17.1898 24.74 20.0798 22.71 22.2298C22.4 21.7998 22.1 21.3698 21.84 20.9098L22.25 20.7198C22.75 20.4798 22.96 19.8898 22.72 19.3898C22.48 18.8898 21.89 18.6798 21.39 18.9198L20.98 19.1098C20.73 18.4898 20.53 17.8398 20.38 17.1798L20.83 17.1098C21.38 17.0198 21.75 16.5098 21.66 15.9698C21.57 15.4198 21.06 15.0498 20.52 15.1398L20.07 15.2098C20.04 14.8198 20.01 14.4198 20.01 14.0098C20.01 13.7298 20.04 13.4598 20.05 13.1798L20.49 13.2398C21.04 13.3098 21.54 12.9298 21.61 12.3798C21.68 11.8298 21.3 11.3298 20.75 11.2598L20.29 11.1998C20.43 10.5298 20.63 9.88977 20.86 9.24977L21.27 9.42977C21.77 9.64977 22.37 9.42977 22.59 8.91977C22.81 8.41977 22.59 7.81977 22.08 7.59977L21.66 7.40977C21.97 6.82977 22.32 6.27977 22.7 5.75977C24.74 7.90977 26 10.8098 26 13.9998ZM5.3 5.75977C5.68 6.27977 6.03 6.82977 6.34 7.40977L5.92 7.59977C5.42 7.81977 5.19 8.41977 5.41 8.91977C5.63 9.41977 6.23 9.64977 6.73 9.42977L7.14 9.24977C7.37 9.87977 7.57 10.5298 7.71 11.1998L7.25 11.2598C6.7 11.3298 6.32 11.8298 6.39 12.3798C6.46 12.9298 6.96 13.3098 7.51 13.2398L7.95 13.1798C7.97 13.4598 7.99 13.7298 7.99 14.0098C7.99 14.4098 7.96 14.8098 7.93 15.2098L7.48 15.1398C6.93 15.0498 6.42 15.4298 6.34 15.9698C6.25 16.5198 6.63 17.0298 7.17 17.1098L7.62 17.1798C7.47 17.8398 7.26 18.4898 7.02 19.1098L6.61 18.9198C6.11 18.6798 5.52 18.8898 5.28 19.3898C5.04 19.8898 5.25 20.4898 5.75 20.7198L6.16 20.9098C5.9 21.3698 5.6 21.8098 5.29 22.2298C3.26 20.0798 2 17.1898 2 13.9998C2 10.8098 3.26 7.90977 5.3 5.75977ZM6.8 23.5798C7.23 23.0098 7.62 22.3998 7.98 21.7698L8.46 21.9998C8.96 22.2398 9.55 22.0298 9.79 21.5298C10.03 21.0298 9.82 20.4298 9.32 20.1998L8.83 19.9698C9.15 19.1698 9.41 18.3398 9.6 17.4898L10.13 17.5698C10.68 17.6598 11.19 17.2798 11.27 16.7398C11.36 16.1898 10.98 15.6798 10.44 15.5998L9.91 15.5198C9.96 15.0198 9.99 14.5198 9.99 14.0098C9.99 13.6398 9.96 13.2798 9.93 12.9198L10.47 12.8498C11.02 12.7798 11.4 12.2798 11.33 11.7298C11.26 11.1798 10.76 10.7998 10.21 10.8698L9.68 10.9398C9.51 10.0798 9.26 9.24977 8.96 8.43976L9.46 8.21977C9.96 7.99977 10.19 7.39977 9.97 6.89977C9.75 6.39977 9.15 6.16977 8.65 6.38977L8.16 6.60977C7.76 5.84977 7.29 5.12977 6.78 4.43977C8.79 2.91977 11.28 2.00977 13.98 2.00977C16.68 2.00977 19.17 2.91977 21.18 4.43977C20.67 5.11977 20.2 5.83977 19.8 6.60977L19.31 6.38977C18.81 6.16977 18.21 6.38977 17.99 6.89977C17.77 7.39977 17.99 7.99977 18.5 8.21977L19 8.43976C18.7 9.24977 18.45 10.0798 18.28 10.9398L17.75 10.8698C17.2 10.7998 16.7 11.1798 16.63 11.7298C16.56 12.2798 16.94 12.7798 17.49 12.8498L18.03 12.9198C18.01 13.2798 17.97 13.6398 17.97 14.0098C17.97 14.5198 18 15.0198 18.05 15.5198L17.52 15.5998C16.97 15.6898 16.6 16.1998 16.69 16.7398C16.78 17.2898 17.29 17.6598 17.83 17.5698L18.36 17.4898C18.55 18.3498 18.81 19.1798 19.13 19.9698L18.64 20.1998C18.14 20.4398 17.93 21.0298 18.17 21.5298C18.41 22.0298 19 22.2398 19.5 21.9998L19.98 21.7698C20.33 22.3998 20.73 22.9998 21.16 23.5798C19.15 25.0898 16.66 25.9998 13.96 25.9998C11.26 25.9998 8.77 25.0898 6.76 23.5798H6.8Z" fill="#FF6144"/>
<path opacity="0.3" d="M18 4C20.84 4 23.48 4.85 25.69 6.31C23.19 2.51 18.89 0 14 0C6.27 0 0 6.27 0 14C0 18.89 2.51 23.19 6.31 25.69C4.85 23.48 4 20.84 4 18C4 10.27 10.27 4 18 4Z" fill="white"/>
<path d="M1 14C1 6.8203 6.8203 1 14 1C21.1797 1 27 6.8203 27 14C27 21.1797 21.1797 27 14 27C6.8203 27 1 21.1797 1 14Z" stroke="#A9A9AC" stroke-width="2"/>
</svg>
