<svg width="12" height="12" viewBox="0 0 12 12" fill="none" xmlns="http://www.w3.org/2000/svg">
<path d="M9.64286 3H4.35714C3.60761 3 3 3.60761 3 4.35714V9.64286C3 10.3924 3.60761 11 4.35714 11H9.64286C10.3924 11 11 10.3924 11 9.64286V4.35714C11 3.60761 10.3924 3 9.64286 3Z" stroke="#C5C5C5" stroke-linejoin="round"/>
<path d="M8.9881 2.90476L9 2.33333C8.99899 1.98002 8.8582 1.64147 8.60837 1.39163C8.35853 1.1418 8.01998 1.00101 7.66667 1H2.52381C2.12004 1.00119 1.73314 1.16212 1.44763 1.44763C1.16212 1.73314 1.00119 2.12004 1 2.52381V7.66667C1.00101 8.01998 1.1418 8.35853 1.39163 8.60837C1.64147 8.8582 1.98002 8.99899 2.33333 9H2.90476" stroke="#C5C5C5" stroke-linecap="round" stroke-linejoin="round"/>
</svg>
