<svg width="24" height="24" viewBox="0 0 24 24" fill="none" xmlns="http://www.w3.org/2000/svg">
<path d="M19.281 11.0302C19.2114 11.1 19.1287 11.1553 19.0376 11.193C18.9466 11.2308 18.849 11.2502 18.7504 11.2502C18.6519 11.2502 18.5543 11.2308 18.4632 11.193C18.3722 11.1553 18.2894 11.1 18.2198 11.0302L12.7504 5.55993V20.2496C12.7504 20.4485 12.6714 20.6393 12.5307 20.7799C12.3901 20.9206 12.1993 20.9996 12.0004 20.9996C11.8015 20.9996 11.6107 20.9206 11.4701 20.7799C11.3294 20.6393 11.2504 20.4485 11.2504 20.2496V5.55993L5.78104 11.0302C5.64031 11.171 5.44944 11.25 5.25042 11.25C5.05139 11.25 4.86052 11.171 4.71979 11.0302C4.57906 10.8895 4.5 10.6986 4.5 10.4996C4.5 10.3006 4.57906 10.1097 4.71979 9.96899L11.4698 3.21899C11.5394 3.14926 11.6222 3.09394 11.7132 3.05619C11.8043 3.01845 11.9019 2.99902 12.0004 2.99902C12.099 2.99902 12.1966 3.01845 12.2876 3.05619C12.3787 3.09394 12.4614 3.14926 12.531 3.21899L19.281 9.96899C19.3508 10.0386 19.4061 10.1214 19.4438 10.2124C19.4816 10.3035 19.501 10.4011 19.501 10.4996C19.501 10.5982 19.4816 10.6958 19.4438 10.7868C19.4061 10.8779 19.3508 10.9606 19.281 11.0302Z" fill="#737373"/>
</svg>
