<svg width="40" height="40" viewBox="0 0 40 40" fill="none" xmlns="http://www.w3.org/2000/svg">
<rect width="40" height="40" rx="20" fill="#EEEEEE"/>
<path d="M26.7785 26.5398L21.8879 18.8539L26.7136 13.5453C26.8228 13.4223 26.879 13.2612 26.8702 13.097C26.8614 12.9327 26.7881 12.7786 26.6664 12.668C26.5447 12.5574 26.3843 12.4992 26.22 12.5061C26.0557 12.513 25.9007 12.5843 25.7886 12.7047L21.1918 17.7609L18.0285 12.7898C17.9721 12.7011 17.8942 12.6279 17.802 12.5773C17.7098 12.5266 17.6063 12.5 17.5011 12.5H13.7511C13.6391 12.4999 13.5291 12.53 13.4326 12.5871C13.3362 12.6441 13.2568 12.7261 13.2029 12.8243C13.149 12.9226 13.1225 13.0335 13.1262 13.1455C13.1298 13.2575 13.1636 13.3664 13.2238 13.4609L18.1144 21.1461L13.2886 26.4586C13.2323 26.5191 13.1885 26.5902 13.1598 26.6678C13.1312 26.7454 13.1182 26.8279 13.1216 26.9105C13.1251 26.9932 13.1449 27.0743 13.1799 27.1492C13.215 27.2241 13.2645 27.2914 13.3258 27.347C13.387 27.4026 13.4586 27.4455 13.5365 27.4733C13.6144 27.501 13.6971 27.513 13.7797 27.5085C13.8623 27.5041 13.9431 27.4833 14.0176 27.4474C14.0921 27.4114 14.1587 27.3611 14.2136 27.2992L18.8105 22.243L21.9738 27.2141C22.0307 27.3021 22.1088 27.3745 22.2009 27.4244C22.2931 27.4744 22.3963 27.5004 22.5011 27.5H26.2511C26.3631 27.5 26.473 27.4699 26.5693 27.4128C26.6656 27.3558 26.7449 27.274 26.7988 27.1759C26.8526 27.0778 26.8792 26.967 26.8756 26.8551C26.8721 26.7432 26.8385 26.6343 26.7785 26.5398ZM22.8441 26.25L14.8894 13.75H17.155L25.1129 26.25H22.8441Z" fill="#959595"/>
</svg>
