<svg width="16" height="16" viewBox="0 0 16 16" fill="none" xmlns="http://www.w3.org/2000/svg">
<path d="M13.5326 6.53025L8.53255 11.5302C8.46287 11.6002 8.38008 11.6556 8.28892 11.6935C8.19775 11.7314 8.10001 11.7508 8.0013 11.7508C7.90259 11.7508 7.80485 11.7314 7.71369 11.6935C7.62252 11.6556 7.53973 11.6002 7.47005 11.5302L2.47005 6.53025C2.32915 6.38935 2.25 6.19825 2.25 5.999C2.25 5.79974 2.32915 5.60864 2.47005 5.46775C2.61095 5.32685 2.80204 5.2477 3.0013 5.2477C3.20056 5.2477 3.39165 5.32685 3.53255 5.46775L8.00193 9.93712L12.4713 5.46712C12.6122 5.32623 12.8033 5.24707 13.0026 5.24707C13.2018 5.24707 13.3929 5.32623 13.5338 5.46712C13.6747 5.60802 13.7539 5.79911 13.7539 5.99837C13.7539 6.19763 13.6747 6.38873 13.5338 6.52962L13.5326 6.53025Z" fill="#D8D8D8"/>
</svg>
