<svg width="28" height="28" viewBox="0 0 28 28" fill="none" xmlns="http://www.w3.org/2000/svg">
<rect x="0.5" y="0.5" width="27" height="27" rx="13.5" fill="white" stroke="#EEEEEE"/>
<path d="M20.25 14C20.25 14.1989 20.171 14.3897 20.0303 14.5303C19.8897 14.671 19.6989 14.75 19.5 14.75H14.75V19.5C14.75 19.6989 14.671 19.8897 14.5303 20.0303C14.3897 20.171 14.1989 20.25 14 20.25C13.8011 20.25 13.6103 20.171 13.4697 20.0303C13.329 19.8897 13.25 19.6989 13.25 19.5V14.75H8.5C8.30109 14.75 8.11032 14.671 7.96967 14.5303C7.82902 14.3897 7.75 14.1989 7.75 14C7.75 13.8011 7.82902 13.6103 7.96967 13.4697C8.11032 13.329 8.30109 13.25 8.5 13.25H13.25V8.5C13.25 8.30109 13.329 8.11032 13.4697 7.96967C13.6103 7.82902 13.8011 7.75 14 7.75C14.1989 7.75 14.3897 7.82902 14.5303 7.96967C14.671 8.11032 14.75 8.30109 14.75 8.5V13.25H19.5C19.6989 13.25 19.8897 13.329 20.0303 13.4697C20.171 13.6103 20.25 13.8011 20.25 14Z" fill="#616163"/>
</svg>
