<svg width="14" height="14" viewBox="0 0 14 14" fill="none" xmlns="http://www.w3.org/2000/svg">
<path d="M3.37203 2.05977L1.62203 3.80977C1.53994 3.89187 1.4286 3.93799 1.3125 3.93799C1.1964 3.93799 1.08506 3.89187 1.00297 3.80977C0.920875 3.72768 0.874756 3.61634 0.874756 3.50024C0.874756 3.38415 0.920875 3.2728 1.00297 3.19071L2.75297 1.44071C2.83506 1.35862 2.9464 1.3125 3.0625 1.3125C3.1786 1.3125 3.28994 1.35862 3.37203 1.44071C3.45412 1.5228 3.50024 1.63415 3.50024 1.75024C3.50024 1.86634 3.45412 1.97768 3.37203 2.05977ZM12.997 3.19071L11.247 1.44071C11.1649 1.35862 11.0536 1.3125 10.9375 1.3125C10.8214 1.3125 10.7101 1.35862 10.628 1.44071C10.5459 1.5228 10.4998 1.63415 10.4998 1.75024C10.4998 1.86634 10.5459 1.97768 10.628 2.05977L12.378 3.80977C12.4186 3.85042 12.4669 3.88267 12.52 3.90467C12.5731 3.92666 12.63 3.93799 12.6875 3.93799C12.745 3.93799 12.8019 3.92666 12.855 3.90467C12.9081 3.88267 12.9564 3.85042 12.997 3.80977C13.0377 3.76913 13.0699 3.72087 13.0919 3.66776C13.1139 3.61465 13.1252 3.55773 13.1252 3.50024C13.1252 3.44276 13.1139 3.38584 13.0919 3.33273C13.0699 3.27962 13.0377 3.23136 12.997 3.19071ZM12.25 7.43774C12.25 8.4761 11.9421 9.49113 11.3652 10.3545C10.7883 11.2178 9.9684 11.8907 9.00909 12.2881C8.04978 12.6855 6.99418 12.7894 5.97578 12.5869C4.95737 12.3843 4.02191 11.8843 3.28769 11.1501C2.55346 10.4158 2.05345 9.48037 1.85088 8.46197C1.6483 7.44357 1.75227 6.38797 2.14963 5.42866C2.54699 4.46934 3.2199 3.64941 4.08326 3.07253C4.94661 2.49565 5.96165 2.18774 7 2.18774C8.3919 2.18934 9.72633 2.74297 10.7106 3.72719C11.6948 4.71141 12.2484 6.04585 12.25 7.43774ZM10.5 7.43774C10.5 7.32171 10.4539 7.21043 10.3719 7.12838C10.2898 7.04634 10.1785 7.00024 10.0625 7.00024H7.4375V4.37524C7.4375 4.25921 7.39141 4.14793 7.30936 4.06588C7.22731 3.98384 7.11603 3.93774 7 3.93774C6.88397 3.93774 6.77269 3.98384 6.69064 4.06588C6.60859 4.14793 6.5625 4.25921 6.5625 4.37524V7.43774C6.5625 7.55378 6.60859 7.66506 6.69064 7.7471C6.77269 7.82915 6.88397 7.87524 7 7.87524H10.0625C10.1785 7.87524 10.2898 7.82915 10.3719 7.7471C10.4539 7.66506 10.5 7.55378 10.5 7.43774Z" fill="white"/>
</svg>
