<svg width="24" height="28" viewBox="0 0 24 28" fill="none" xmlns="http://www.w3.org/2000/svg">
<path d="M11 0H10C4.48 0 0 4.48 0 10V12.5C0 13.01 0.05 13.51 0.14 14C0.26 14.7 0.47 15.37 0.76 16C1.98 18.7 4.57 20.65 7.65 20.96L7 26.5C7 27.33 7.67 28 8.5 28H12.5C13.33 28 14 27.33 14 26.5L13.35 20.96C16.43 20.66 19.02 18.7 20.24 16C20.53 15.37 20.74 14.7 20.86 14C20.95 13.51 21 13.01 21 12.5V10C21 4.48 16.52 0 11 0ZM9.07 26L9.66 21H11.34L11.93 26H9.08H9.07ZM13.11 18.97C12.91 18.99 12.7 19 12.5 19H8.5C8.29 19 8.09 18.99 7.89 18.97C5.85 18.78 4.09 17.64 3.04 16H17.98C16.93 17.64 15.16 18.78 13.13 18.97H13.11ZM2.18 14C2.07 13.52 2 13.02 2 12.5V10C2 5.59 5.59 2 10 2H11C15.41 2 19 5.59 19 10V12.5C19 13.02 18.93 13.52 18.82 14H2.18Z" fill="#BD0009"/>
<path d="M21.5 26C22.8807 26 24 24.8807 24 23.5C24 22.1193 22.8807 21 21.5 21C20.1193 21 19 22.1193 19 23.5C19 24.8807 20.1193 26 21.5 26Z" fill="#F9C76A"/>
<path opacity="0.3" d="M14.5122 3C16.1114 3 17.6206 3.36 18.9798 4C17.1608 1.57 14.2624 0 10.9941 0H9.99465C4.4776 0 0 4.48 0 10V12.5C0 13.01 0.0499726 13.51 0.139924 14C0.25986 14.7 0.469747 15.37 0.759591 16C1.89898 18.52 4.24772 20.37 7.05622 20.86C5.18722 18.96 4.01785 16.38 4.01785 13.5C4.01785 7.7 8.71533 3 14.5122 3Z" fill="#F8F9F9"/>
<path opacity="0.2" d="M7.00575 26.5C7.00575 27.33 7.67539 28 8.50494 28H12.5028C13.3324 28 14.002 27.33 14.002 26.5L13.3524 20.96C16.4307 20.66 19.0193 18.7 20.2387 16C20.5285 15.37 20.7384 14.7 20.8583 14C20.9483 13.51 20.9983 13.01 20.9983 12.5V10C20.9983 7.75 20.2487 5.68 18.9893 4C17.6301 3.36 16.1209 3 14.5217 3C8.72483 3 4.02734 7.7 4.02734 13.5C4.02734 16.37 5.19672 18.96 7.06572 20.86C7.26561 20.89 7.45551 20.94 7.6554 20.96L7.00575 26.5Z" fill="#60E886"/>
<path d="M10 2C5.59 2 2 5.59 2 10V12.5C2 13.02 2.07 13.52 2.18 14H4.04C4.04 13.83 4.01 13.67 4.01 13.5C4.02 7.7 8.72 3 14.52 3C14.65 3 14.77 3.02 14.9 3.02C13.75 2.37 12.42 2 11 2H10Z" fill="#FF796C"/>
<path d="M4.01953 13.5C4.01953 13.67 4.03953 13.83 4.04953 14H18.8195C18.9295 13.52 18.9995 13.02 18.9995 12.5V10C18.9995 7 17.3395 4.39 14.8995 3.02C14.7695 3.02 14.6495 3 14.5195 3C8.71953 3 4.01953 7.7 4.01953 13.5Z" fill="#E26652"/>
<path d="M5.05906 18.01C4.74906 17.37 4.50906 16.7 4.33906 16H3.03906C3.55906 16.81 4.24906 17.49 5.06906 18.01H5.05906Z" fill="#FFFDFC"/>
<path d="M7.88812 18.97C8.08812 18.99 8.29813 19 8.49813 19H12.4981C12.7081 19 12.9081 18.99 13.1081 18.97C15.1481 18.78 16.9081 17.64 17.9581 16H4.32812C4.49813 16.7 4.74813 17.37 5.04813 18.01C5.87812 18.53 6.83813 18.88 7.87813 18.97H7.88812Z" fill="#F7DDC8"/>
<path d="M9.66031 21L9.07031 26H11.9303L11.3403 21H9.66031Z" fill="#F6DCC8"/>
</svg>
