<svg width="28" height="28" viewBox="0 0 28 28" fill="none" xmlns="http://www.w3.org/2000/svg">
<path d="M28 14C28 11.16 27.15 8.52 25.69 6.31C23.48 4.85 20.84 4 18 4C10.27 4 4 10.27 4 18C4 20.84 4.85 23.48 6.31 25.69C8.52 27.15 11.16 28 14 28C21.73 28 28 21.73 28 14Z" fill="#F4F5F6"/>
<path d="M14.015 0C14.015 0 13.945 0 13.9049 0C13.0746 0 12.2544 0.09 11.4641 0.24C7.46265 0.98 4.06144 3.42 2.03072 6.78C1.56055 7.55 1.17042 8.37 0.860306 9.22C0.320114 10.71 0 12.32 0 14C0 21.73 6.27223 28 14.005 28C14.3851 28 14.7452 27.97 15.1154 27.94C15.9957 27.87 16.846 27.72 17.6763 27.49C21.5377 26.44 24.7188 23.8 26.4894 20.3C26.8495 19.58 27.1597 18.84 27.3997 18.05C27.7899 16.76 28 15.4 28 13.99C28.02 6.27 21.7477 0 14.015 0ZM10.3537 19.34C9.53339 19.34 8.7331 19.25 7.94282 19.08L6.7424 17.49C6.93246 15.51 7.62271 13.58 8.79313 11.88L12.0543 11.66C12.5945 12.04 13.1047 12.47 13.5748 12.94C14.3751 13.74 15.0153 14.63 15.5355 15.57L14.7252 18.51C13.3547 19.05 11.8742 19.34 10.3537 19.34ZM20.1472 14.26H17.0961C16.5159 13.29 15.8256 12.36 14.9853 11.52C14.6452 11.18 14.2851 10.88 13.9149 10.58L14.9153 7.26C16.1157 6.87 17.3762 6.65 18.6666 6.65C19.2769 6.65 19.8871 6.7 20.4873 6.79L22.1579 9.41C21.8578 11.12 21.1875 12.78 20.1372 14.25L20.1472 14.26ZM14.015 2C16.2358 2 18.3065 2.62 20.0871 3.67L19.817 4.71C19.4369 4.68 19.0568 4.65 18.6766 4.65C17.0561 4.65 15.4355 4.95 13.8949 5.52L12.1343 4.6C12.2744 3.73 12.5044 2.88 12.8346 2.05C13.2247 2.01 13.6148 1.99 14.015 1.99V2ZM10.5638 2.51C10.3637 3.17 10.2036 3.84 10.1036 4.51L6.7524 6.53C6.2022 6.46 5.64201 6.42 5.08181 6.42C4.95176 6.42 4.82171 6.44 4.69167 6.44C6.1922 4.59 8.22292 3.2 10.5638 2.5V2.51ZM5.09181 8.42C5.64201 8.42 6.1822 8.47 6.71239 8.55L7.37262 10.42C6.15219 12.09 5.3519 13.97 4.97177 15.91L2.17077 15.76C2.08074 15.18 2.03072 14.6 2.03072 14C2.03072 12.04 2.51089 10.2 3.35119 8.56C3.9314 8.47 4.5116 8.42 5.11182 8.42H5.09181ZM14.015 26C11.7642 26 9.66343 25.37 7.8628 24.29L8.61306 21.23C9.19327 21.31 9.77347 21.35 10.3537 21.35C12.0243 21.35 13.6849 21.05 15.2654 20.45L17.0461 22.05C16.976 23.32 16.7059 24.59 16.2458 25.79C15.5255 25.93 14.7853 26 14.025 26H14.015ZM18.5866 25.09C18.8267 24.21 18.9767 23.32 19.0368 22.42L21.7977 20.4C22.508 20.51 23.2183 20.58 23.9385 20.58C23.9785 20.58 24.0085 20.58 24.0485 20.58C22.7281 22.58 20.8274 24.17 18.5866 25.1V25.09ZM23.9385 18.58C23.4683 18.58 22.9982 18.54 22.538 18.49L21.8578 15.33C22.7981 13.98 23.4583 12.5 23.8685 10.96L25.7291 11.39C25.9192 12.23 26.0293 13.11 26.0293 14.01C26.0293 15.61 25.7091 17.13 25.1389 18.52C24.7488 18.56 24.3487 18.59 23.9485 18.59L23.9385 18.58Z" fill="#616163"/>
<path opacity="0.3" d="M18 4C20.84 4 23.48 4.85 25.69 6.31C23.19 2.51 18.89 0 14 0C6.27 0 0 6.27 0 14C0 18.89 2.51 23.19 6.31 25.69C4.85 23.48 4 20.84 4 18C4 10.27 10.27 4 18 4Z" fill="white"/>
<rect x="1" y="1" width="26" height="26" rx="13" stroke="#737373" stroke-width="2"/>
</svg>
