<svg width="25" height="28" viewBox="0 0 25 28" fill="none" xmlns="http://www.w3.org/2000/svg">
<path d="M22.7896 7.42532L19.6796 7.21532L18.2996 4.22532C18.1396 3.89532 17.8196 3.66532 17.4496 3.64532L14.1696 3.42532L12.8596 0.595316C12.6696 0.185316 12.2196 -0.0546836 11.7796 0.0253164L7.29962 0.765316C6.89962 0.835316 6.58962 1.13532 6.50962 1.52532L4.07962 13.1753L3.64962 15.2653L3.21962 17.3553L2.10962 18.9753L0.829618 20.8453C-0.480382 22.7453 -0.240382 25.4153 1.55962 26.9253C3.61962 28.6553 6.66962 28.2453 8.13962 26.1053L10.6496 22.4653L12.4396 21.3153L14.2296 20.1653L24.2396 13.7353C24.5796 13.5153 24.7496 13.1153 24.6596 12.7253L23.7496 8.27532C23.6596 7.83532 23.2796 7.50532 22.8296 7.47532L22.7996 7.43532L22.7896 7.42532ZM16.9696 6.14532L17.4596 7.21532C17.6296 7.58532 17.5596 8.01532 17.2796 8.31532L9.37962 17.1353L8.58962 16.5953L13.9796 6.04532C14.1596 5.68532 14.5396 5.46532 14.9396 5.48532L16.1296 5.55532C16.4996 5.57532 16.8296 5.80532 16.9796 6.13532H16.9696V6.14532ZM8.91962 2.54532L10.5796 2.25532C11.0296 2.17532 11.4696 2.41532 11.6596 2.82532L12.2596 4.15532C12.3796 4.42532 12.3796 4.74532 12.2496 5.00532L6.90962 15.4453L5.68962 14.6053L8.11962 3.31532C8.20962 2.91532 8.51962 2.61532 8.92962 2.54532H8.91962ZM7.83962 22.9153L3.71962 20.0853L4.82962 18.4653L5.47962 18.9153L8.21962 20.7953L8.95962 21.3053L7.84962 22.9253L7.83962 22.9153ZM12.2596 19.1253L11.0396 18.2853L18.8596 9.55532C19.0596 9.33532 19.3496 9.22532 19.6496 9.24532L21.1296 9.33532C21.5896 9.36532 21.9596 9.69532 22.0496 10.1453L22.3696 11.7953C22.4496 12.1953 22.2796 12.6053 21.9296 12.8253L12.2496 19.1253H12.2596Z" fill="#C5C5C5"/>
<path d="M9.38781 17.1346L8.59781 16.5946L7.69781 15.9746L6.00781 19.2546L10.6278 22.4346L12.4178 21.2746L13.5078 20.5746L13.9578 20.2846L9.38781 17.1346Z" fill="#737373"/>
<path d="M3.37703 17.4453L4.85703 18.4653L5.32703 18.7853L6.00703 19.2553L7.69703 15.9753L6.92703 15.4553L5.70703 14.6053L4.01703 13.4453L3.64703 15.2453L3.20703 17.3353L3.37703 17.4453Z" fill="#737373"/>
<path opacity="0.2" d="M24.668 12.7055L23.758 8.24555C23.668 7.80555 23.288 7.47555 22.838 7.44555L19.718 7.23555L18.338 4.23555C18.178 3.90555 17.858 3.67555 17.488 3.65555L14.198 3.43555L1.91797 27.2055C3.95797 28.5955 6.73797 28.1355 8.11797 26.1255L10.628 22.4755L12.418 21.3255L14.208 20.1755L24.228 13.7355C24.568 13.5155 24.738 13.1155 24.648 12.7255H24.658L24.668 12.7055Z" fill="#C5C5C5"/>
<path opacity="0.3" d="M14.1913 3.42531L12.8813 0.585307C12.6913 0.175307 12.2413 -0.0646933 11.8013 0.0153067L7.31134 0.755307C6.91134 0.825307 6.60134 1.12531 6.52134 1.51531L4.09134 13.1753L3.66134 15.2653L3.23134 17.3553L2.12134 18.9753L0.841337 20.8453C-0.468663 22.7453 -0.228663 25.4253 1.57134 26.9353C1.69134 27.0353 1.83134 27.1053 1.96134 27.1953L14.1913 3.42531Z" fill="white"/>
</svg>
