<svg width="40" height="40" viewBox="0 0 40 40" fill="none" xmlns="http://www.w3.org/2000/svg">
<rect width="40" height="40" rx="20" fill="#EEEEEE"/>
<path d="M28.307 15.4313C28.2334 15.1432 28.0924 14.8769 27.8955 14.6541C27.6987 14.4313 27.4517 14.2585 27.175 14.15C24.4969 13.1156 20.2344 13.125 20 13.125C19.7656 13.125 15.5031 13.1156 12.825 14.15C12.5483 14.2585 12.3013 14.4313 12.1044 14.6541C11.9076 14.8769 11.7666 15.1432 11.693 15.4313C11.4906 16.2109 11.25 17.6359 11.25 20C11.25 22.3641 11.4906 23.7891 11.693 24.5688C11.7665 24.8569 11.9075 25.1234 12.1043 25.3464C12.3011 25.5693 12.5482 25.7422 12.825 25.8508C15.3906 26.8406 19.4062 26.875 19.9484 26.875H20.0516C20.5938 26.875 24.6117 26.8406 27.175 25.8508C27.4518 25.7422 27.6989 25.5693 27.8957 25.3464C28.0925 25.1234 28.2335 24.8569 28.307 24.5688C28.5094 23.7875 28.75 22.3641 28.75 20C28.75 17.6359 28.5094 16.2109 28.307 15.4313ZM22.5461 20.5094L19.4211 22.6969C19.3276 22.7624 19.218 22.801 19.1041 22.8086C18.9902 22.8162 18.8764 22.7925 18.7751 22.74C18.6737 22.6875 18.5887 22.6083 18.5292 22.5109C18.4697 22.4135 18.438 22.3016 18.4375 22.1875V17.8125C18.4375 17.6982 18.4689 17.586 18.5283 17.4883C18.5876 17.3906 18.6726 17.311 18.774 17.2582C18.8755 17.2055 18.9894 17.1815 19.1035 17.189C19.2176 17.1965 19.3275 17.2352 19.4211 17.3008L22.5461 19.4883C22.6283 19.5459 22.6954 19.6225 22.7417 19.7116C22.7881 19.8007 22.8123 19.8996 22.8123 20C22.8122 20.1004 22.7881 20.1993 22.7417 20.2884C22.6954 20.3775 22.6283 20.4541 22.5461 20.5117V20.5094Z" fill="#959595"/>
</svg>
