<svg width="22" height="28" viewBox="0 0 22 28" fill="none" xmlns="http://www.w3.org/2000/svg">
<path d="M22 11C22 8.99 21.45 7.11 20.51 5.49C18.89 4.55 17.01 4 15 4C8.92 4 4 8.92 4 15C4 17.01 4.55 18.89 5.49 20.51C7.11 21.45 8.99 22 11 22C17.08 22 22 17.08 22 11Z" fill="#F4F5F6"/>
<path d="M11 2C15.96 2 20 6.04 20 11C20 15.96 15.96 20 11 20C6.04 20 2 15.96 2 11C2 6.04 6.04 2 11 2ZM11 0C4.92 0 0 4.92 0 11C0 17.08 4.92 22 11 22C17.08 22 22 17.08 22 11C22 4.92 17.08 0 11 0Z" fill="#C5C5C5"/>
<path d="M7.21822 23.78C7.84822 25.15 7.99822 26.68 7.99822 28H13.9982C13.9982 26.67 14.1482 25.15 14.7782 23.78C14.9582 23.39 14.6282 22.96 14.2082 23.08C13.1882 23.36 12.1082 23.51 10.9982 23.51C9.88822 23.51 8.80822 23.36 7.78822 23.08C7.36822 22.97 7.03822 23.39 7.21822 23.78Z" fill="#737373"/>
<path d="M10.9992 17C10.8592 17 10.7092 17.02 10.5692 17.08C9.91917 17.32 9.58917 18.03 9.81917 18.68C9.99917 19.19 10.4792 19.5 10.9892 19.5C11.1292 19.5 11.2792 19.48 11.4192 19.42C12.0692 19.18 12.3992 18.47 12.1692 17.82C11.9892 17.31 11.5092 17 10.9992 17Z" fill="#D8D8D8"/>
<path d="M10.9992 14C10.8592 14 10.7092 14.02 10.5692 14.08C9.91917 14.32 9.58917 15.03 9.81917 15.68C9.99917 16.19 10.4792 16.5 10.9892 16.5C11.1292 16.5 11.2792 16.48 11.4192 16.42C12.0692 16.18 12.3992 15.47 12.1692 14.82C11.9892 14.31 11.5092 14 10.9992 14Z" fill="#D8D8D8"/>
<path d="M8.00048 12.75C7.53048 12.75 7.08048 13.02 6.87048 13.47C6.58048 14.1 6.85048 14.84 7.47048 15.13C7.64048 15.21 7.82048 15.25 8.00048 15.25C8.47048 15.25 8.92048 14.98 9.13048 14.53C9.42048 13.9 9.15048 13.16 8.53048 12.87C8.36048 12.79 8.18048 12.75 8.00048 12.75Z" fill="#D8D8D8"/>
<path d="M14.0083 12.75C13.5383 12.75 13.0883 13.02 12.8783 13.47C12.5883 14.1 12.8583 14.84 13.4783 15.13C13.6483 15.21 13.8283 15.25 14.0083 15.25C14.4783 15.25 14.9283 14.98 15.1383 14.53C15.4283 13.9 15.1583 13.16 14.5383 12.87C14.3683 12.79 14.1883 12.75 14.0083 12.75Z" fill="#D8D8D8"/>
<path d="M7.92839 16.3203C7.28839 16.3203 6.73839 16.8103 6.68839 17.4603C6.62839 18.1503 7.13839 18.7503 7.82839 18.8103C7.86839 18.8103 7.89839 18.8103 7.93839 18.8103C8.57839 18.8103 9.12839 18.3203 9.17839 17.6703C9.23839 16.9803 8.72839 16.3803 8.03839 16.3203C7.99839 16.3203 7.96839 16.3203 7.92839 16.3203Z" fill="#D8D8D8"/>
<path d="M5.44888 14.4102C5.01888 14.4102 4.59888 14.6302 4.36888 15.0402C4.01888 15.6402 4.22888 16.4002 4.82888 16.7502C5.02888 16.8602 5.23888 16.9202 5.44888 16.9202C5.87888 16.9202 6.29888 16.7002 6.52888 16.2902C6.87888 15.6902 6.66888 14.9302 6.06888 14.5802C5.86888 14.4702 5.65888 14.4102 5.44888 14.4102Z" fill="#D8D8D8"/>
<path d="M3.99988 11.6299C3.74988 11.6299 3.49988 11.6999 3.27988 11.8599C2.70988 12.2599 2.57988 13.0399 2.96988 13.5999C3.20988 13.9499 3.59988 14.1299 3.99988 14.1299C4.24988 14.1299 4.49988 14.0599 4.71988 13.8999C5.28988 13.4999 5.41988 12.7199 5.02988 12.1599C4.78988 11.8099 4.39988 11.6299 3.99988 11.6299Z" fill="#D8D8D8"/>
<path d="M14.06 16.3203C13.74 16.3203 13.42 16.4403 13.18 16.6903C12.69 17.1803 12.69 17.9703 13.18 18.4603C13.42 18.7003 13.74 18.8303 14.06 18.8303C14.38 18.8303 14.7 18.7103 14.94 18.4603C15.43 17.9703 15.43 17.1803 14.94 16.6903C14.7 16.4503 14.38 16.3203 14.06 16.3203Z" fill="#D8D8D8"/>
<path d="M16.5518 14.4102C16.0418 14.4102 15.5618 14.7302 15.3818 15.2302C15.1418 15.8802 15.4818 16.6002 16.1318 16.8302C16.2718 16.8802 16.4218 16.9102 16.5618 16.9102C17.0718 16.9102 17.5518 16.5902 17.7318 16.0902C17.9718 15.4402 17.6318 14.7202 16.9818 14.4902C16.8418 14.4402 16.6918 14.4102 16.5518 14.4102Z" fill="#D8D8D8"/>
<path d="M18.0009 11.6299C18.0009 11.6299 17.9309 11.6299 17.8909 11.6299C17.2009 11.6899 16.6909 12.2999 16.7509 12.9799C16.8109 13.6299 17.3509 14.1199 17.9909 14.1199C18.0309 14.1199 18.0609 14.1199 18.1009 14.1199C18.7909 14.0599 19.3009 13.4499 19.2409 12.7699C19.1809 12.1199 18.6409 11.6299 18.0009 11.6299Z" fill="#D8D8D8"/>
<path opacity="0.3" d="M15 4C17.01 4 18.89 4.55 20.51 5.49C18.61 2.21 15.06 0 11 0C4.92 0 0 4.92 0 11C0 15.06 2.21 18.61 5.49 20.51C4.55 18.89 4 17.01 4 15C4 8.92 8.92 4 15 4Z" fill="white"/>
<rect x="1" y="1" width="20" height="20" rx="10" stroke="#C5C5C5" stroke-width="2"/>
</svg>
